<svg width="42" height="41" viewBox="0 0 42 41" fill="none" xmlns="http://www.w3.org/2000/svg">
<g clip-path="url(#clip0_405_552)">
<path d="M32.0341 13.0377C31.7652 12.7764 31.3878 12.6576 31.0185 12.7183C30.6486 12.7788 30.3291 13.0111 30.1575 13.3444C29.5672 14.491 28.8175 15.5447 27.9355 16.4762C28.0234 15.8033 28.0677 15.1264 28.0677 14.4477C28.0677 13.1454 27.8931 11.8052 27.5487 10.4639C26.4164 6.0584 23.4471 2.33268 19.4024 0.242178C19.0503 0.0602337 18.6307 0.0666219 18.2842 0.259213C17.9378 0.451883 17.7109 0.805125 17.6798 1.20024C17.3645 5.20381 15.3023 8.84616 12.0189 11.1957C11.9754 11.2271 11.9323 11.2588 11.8891 11.2903C11.7998 11.3557 11.7156 11.4175 11.6369 11.4694C11.6245 11.4776 11.6123 11.486 11.6003 11.4946C9.53531 12.9731 7.8314 14.9439 6.67262 17.1947C5.49515 19.4841 4.89813 21.9409 4.89813 24.4965C4.89813 25.7984 5.07266 27.1386 5.41691 28.4801C7.2336 35.551 13.5968 40.4895 20.8912 40.4895C29.7093 40.4895 36.8833 33.315 36.8833 24.4965C36.8833 20.1478 35.1611 16.0783 32.0341 13.0377Z" fill="#FF7327"/>
<circle cx="20.2793" cy="24.5822" r="4.89448" fill="white"/>
</g>
<defs>
<clipPath id="clip0_405_552">
<rect width="40.3795" height="40.3795" fill="white" transform="translate(0.701172 0.110107)"/>
</clipPath>
</defs>
</svg>
