<svg width="69" height="60" viewBox="0 0 69 60" fill="none" xmlns="http://www.w3.org/2000/svg">
<path d="M36.1365 14.7458L36.2288 14.7733L36.2328 14.7688C36.6705 14.8481 37.1046 14.586 37.2332 14.1519C38.4048 10.2152 42.096 7.46504 46.2084 7.46504C46.6952 7.46504 47.0901 7.07016 47.0901 6.5833C47.0901 6.09643 46.6952 5.70156 46.2084 5.70156C41.1542 5.70156 36.907 9.06665 35.5433 13.6493C35.4041 14.1162 35.6701 14.6067 36.1365 14.7458Z" fill="#FFC0CB" stroke="#F9FFF9" stroke-width="0.3"/>
<path d="M56.4523 42.4384H52.0619C51.6579 42.4384 51.3302 42.1107 51.3302 41.7067C51.3302 41.3027 51.6579 40.9749 52.0619 40.9749H56.4523C62.5042 40.9749 67.4282 36.0509 67.4282 29.999C67.4282 23.9471 62.5042 19.023 56.4523 19.023H56.3467C56.1345 19.023 55.9327 18.9311 55.7937 18.7706C55.6547 18.6101 55.592 18.3974 55.6223 18.1873C55.6876 17.7315 55.7206 17.2737 55.7206 16.8279C55.7206 11.5829 51.4529 7.31531 46.208 7.31531C44.1675 7.31531 42.2216 7.95296 40.5804 9.15978C40.2198 9.42478 39.7076 9.30718 39.499 8.91047C34.851 0.0596991 22.7108 -1.12887 16.4167 6.57053C13.7653 9.81417 12.7235 14.0336 13.5583 18.146C13.6503 18.6002 13.3027 19.0236 12.8412 19.0236H12.548C6.49612 19.0236 1.57205 23.9477 1.57205 29.9996C1.57205 36.0514 6.49612 40.9755 12.548 40.9755H16.9383C17.3423 40.9755 17.6701 41.3032 17.6701 41.7072C17.6701 42.1113 17.3424 42.439 16.9383 42.439H12.548C5.68902 42.439 0.108521 36.8585 0.108521 29.9995C0.108521 23.3329 5.38007 17.8742 11.9736 17.5731C11.3542 13.3066 12.5386 9.00295 15.2836 5.64437C22.0223 -2.5996 34.9365 -1.67556 40.3956 7.51707C42.1372 6.42522 44.1301 5.85244 46.2078 5.85244C52.5623 5.85244 57.5977 11.261 57.1571 17.58C63.6899 17.9464 68.8914 23.3763 68.8914 29.999C68.8914 36.8585 63.3113 42.4384 56.4523 42.4384Z" fill="#FFC0CB"/>
<path d="M15.9585 41.2935C15.9585 51.4634 24.2322 59.737 34.402 59.737C44.5719 59.737 52.8455 51.4633 52.8455 41.2935C52.8455 31.1235 44.5719 22.85 34.402 22.85C24.2321 22.85 15.9585 31.1237 15.9585 41.2935ZM17.7223 41.2935C17.7223 32.0966 25.205 24.6138 34.402 24.6138C43.5989 24.6138 51.0817 32.0964 51.0817 41.2935C51.0817 50.4904 43.5989 57.9732 34.402 57.9732C25.2051 57.9732 17.7223 50.4905 17.7223 41.2935Z" fill="#FFC0CB" stroke="#F9FFF9" stroke-width="0.3"/>
<path d="M34.0513 48.6577C34.0513 49.0363 34.3584 49.3434 34.737 49.3434C35.1156 49.3434 35.4227 49.0367 35.4227 48.6577V34.7291C35.4227 34.3504 35.1156 34.0434 34.737 34.0434C34.3584 34.0434 34.0513 34.3504 34.0513 34.7291V48.6577Z" fill="#FFC0CB" stroke="#483EA8" stroke-width="0.3"/>
<path d="M34.7366 35.7001L30.9359 39.5008L34.7366 35.7001ZM34.7366 35.7001L38.5374 39.5009C38.6711 39.6346 38.8471 39.7017 39.0222 39.7017L34.7366 35.7001ZM29.9661 39.5009C30.2339 39.7687 30.6683 39.7689 30.9358 39.5009L39.0223 39.7017C39.1971 39.7017 39.3732 39.6352 39.5072 39.5009C39.775 39.233 39.775 38.799 39.5071 38.5311L35.2215 34.2455C34.9537 33.9777 34.5193 33.9775 34.2517 34.2455C34.2517 34.2455 34.2517 34.2456 34.2516 34.2456L29.9661 38.5311C29.6982 38.799 29.6982 39.233 29.9661 39.5009Z" fill="#FFC0CB" stroke="#483EA8" stroke-width="0.3"/>
</svg>
