    <svg
      width="22"
      height="22"
      viewBox="0 0 22 22"
      fill="none"
      xmlns="http://www.w3.org/2000/svg"
    >
      <path
        d="M11 6H6.5C5.83696 6 5.20107 5.73661 4.73223 5.26777C4.26339 4.79893 4 4.16304 4 3.5C4 2.83696 4.26339 2.20107 4.73223 1.73223C5.20107 1.26339 5.83696 1 6.5 1C10 1 11 6 11 6ZM11 6H15.5C16.163 6 16.7989 5.73661 17.2678 5.26777C17.7366 4.79893 18 4.16304 18 3.5C18 2.83696 17.7366 2.20107 17.2678 1.73223C16.7989 1.26339 16.163 1 15.5 1C12 1 11 6 11 6ZM11 6L11 21M1 13H21M1 9.2L1 17.8C1 18.9201 1 19.4802 1.21799 19.908C1.40973 20.2843 1.71569 20.5903 2.09202 20.782C2.51984 21 3.07989 21 4.2 21L17.8 21C18.9201 21 19.4802 21 19.908 20.782C20.2843 20.5903 20.5903 20.2843 20.782 19.908C21 19.4802 21 18.9201 21 17.8V9.2C21 8.0799 21 7.51984 20.782 7.09202C20.5903 6.7157 20.2843 6.40974 19.908 6.21799C19.4802 6 18.9201 6 17.8 6L4.2 6C3.0799 6 2.51984 6 2.09202 6.21799C1.7157 6.40973 1.40973 6.71569 1.21799 7.09202C1 7.51984 1 8.07989 1 9.2Z"
        stroke="currentColor"
        strokeWidth="4"
        strokeLinecap="round"
        strokeLinejoin="round"
      />
    </svg>
