<svg width="25" height="29" viewBox="0 0 25 29" fill="none" xmlns="http://www.w3.org/2000/svg">
  <path d="M12.2467 28.2788C2.04342 21.3481 0.624752 7.13285 0.56906 6.5305C0.536044 6.17017 0.795366 5.84798 1.15456 5.80431C8.53663 4.90372 12.0555 0.413941 12.0877 0.369974C12.3575 0.0199359 12.8882 0.0185112 13.1561 0.369974C13.1905 0.414674 16.7101 4.90372 24.0922 5.80431C24.4514 5.84798 24.7107 6.17017 24.6777 6.5305C24.622 7.13211 23.2026 21.3481 13 28.2788C12.7725 28.4328 12.4742 28.4328 12.2467 28.2788ZM4.9191 6.39451C3.33097 6.88067 2.16717 8.38 2.54215 9.998C3.49998 14.1309 5.78204 20.9414 10.9489 25.566C11.905 26.4219 13.3402 26.4218 14.2963 25.5659C19.4548 20.948 21.738 14.1513 22.6986 10.0168C23.0762 8.39151 21.9008 6.8881 20.3045 6.4026C17.5391 5.56156 14.9974 4.0783 12.8949 2.05919C12.7442 1.91455 12.2163 2.20956 12.3618 2.05978C10.2386 4.06856 7.68822 5.54682 4.9191 6.39451ZM11.6973 19.3533C10.7895 19.3534 10.0535 18.617 10.0535 17.7093C10.0535 16.8021 9.31811 16.0662 8.41096 16.0662C7.50381 16.0662 6.76842 15.3308 6.76842 14.4237V12.5723C6.76842 11.665 7.50398 10.9294 8.41133 10.9294C9.31868 10.9294 10.0542 10.1939 10.0542 9.2865C10.0542 8.37915 10.7898 7.6436 11.6971 7.6436H13.5489C14.4562 7.6436 15.1918 8.37915 15.1918 9.2865C15.1918 10.1939 15.9273 10.9294 16.8347 10.9294C17.742 10.9294 18.4776 11.665 18.4776 12.5723V14.4233C18.4776 15.3307 17.742 16.0662 16.8347 16.0662C15.9273 16.0662 15.1918 16.802 15.1918 17.7094C15.1918 18.6169 14.4562 19.3529 13.5486 19.353L11.6973 19.3533ZM8.10795 13.4986C8.10795 14.1772 8.65814 14.7274 9.33683 14.7274H9.75159C10.6589 14.7274 11.3945 15.463 11.3945 16.3703V16.7847C11.3945 17.4632 11.9445 18.0132 12.623 18.0132C13.3015 18.0132 13.8515 17.4632 13.8515 16.7847V16.3689C13.8515 15.4615 14.5871 14.726 15.4944 14.726H15.9088C16.5873 14.726 17.1373 14.1759 17.1373 13.4975C17.1373 12.819 16.5873 12.2689 15.9088 12.2689H15.4941C14.5869 12.2689 13.8515 11.5335 13.8515 10.6264V10.2124C13.8515 9.53389 13.3015 8.98386 12.623 8.98386C11.9445 8.98386 11.3945 9.53389 11.3945 10.2124V10.6268C11.3945 11.5341 10.6589 12.2697 9.75159 12.2697H9.33683C8.65814 12.2697 8.10795 12.8199 8.10795 13.4986Z" fill="white" />
</svg>