  <svg
    width="27"
    height="25"
    viewBox="0 0 27 25"
    fill="none"
    xmlns="http://www.w3.org/2000/svg"
  >
    <path
      d="M25.3519 23.4438H24.5739V2.84986C24.5739 1.27867 23.4104 0 21.9803 0H14.848C13.418 0 12.2545 1.27867 12.2545 2.84986V6.63187C12.0459 6.58312 11.8312 6.54885 11.6061 6.54885H4.47387C3.04382 6.54885 1.88032 7.5972 1.88032 8.88672V23.4437H0.778073C0.348547 23.4438 0 23.7924 0 24.2219C0 24.6514 0.348547 25 0.778073 25H25.3519C25.7814 25 26.13 24.6514 26.13 24.2219C26.13 23.7924 25.7815 23.4438 25.3519 23.4438ZM3.95514 8.88678C3.95514 8.81052 4.1372 8.6238 4.47387 8.6238H11.6061C11.9427 8.6238 12.1249 8.81001 12.1249 8.88678V23.4438H3.95514V8.88678ZM14.3294 2.84986C14.3294 2.39288 14.6027 2.07489 14.8481 2.07489H21.9804C22.2257 2.07489 22.4991 2.39288 22.4991 2.84986V23.4439H14.3294V2.84986Z"
      fill="black"
    />
    <path
      d="M17.1537 2.95215H15.871C15.4565 2.95215 15.1199 3.28826 15.1199 3.70325V4.98607C15.1199 5.40055 15.456 5.73717 15.871 5.73717H17.1537C17.5682 5.73717 17.9048 5.40106 17.9048 4.98607V3.70325C17.9048 3.28826 17.5682 2.95215 17.1537 2.95215Z"
      fill="black"
    />
    <path
      d="M17.1537 6.58301H15.871C15.4565 6.58301 15.1199 6.91912 15.1199 7.33411V8.61693C15.1199 9.03141 15.456 9.36803 15.871 9.36803H17.1537C17.5682 9.36803 17.9048 9.03192 17.9048 8.61693V7.33411C17.9048 6.91912 17.5682 6.58301 17.1537 6.58301Z"
      fill="black"
    />
    <path
      d="M17.1537 10.2144H15.871C15.4565 10.2144 15.1199 10.5505 15.1199 10.9655V12.2483C15.1199 12.6628 15.456 12.9994 15.871 12.9994H17.1537C17.5682 12.9994 17.9048 12.6633 17.9048 12.2483V10.9655C17.9048 10.5505 17.5682 10.2144 17.1537 10.2144Z"
      fill="black"
    />
    <path
      d="M20.9574 2.95215H19.6747C19.2602 2.95215 18.9236 3.28826 18.9236 3.70325V4.98607C18.9236 5.40055 19.2597 5.73717 19.6747 5.73717H20.9574C21.3719 5.73717 21.7085 5.40106 21.7085 4.98607V3.70325C21.7085 3.28826 21.3724 2.95215 20.9574 2.95215Z"
      fill="black"
    />
    <path
      d="M20.9574 6.58301H19.6747C19.2602 6.58301 18.9236 6.91912 18.9236 7.33411V8.61693C18.9236 9.03141 19.2597 9.36803 19.6747 9.36803H20.9574C21.3719 9.36803 21.7085 9.03192 21.7085 8.61693V7.33411C21.7085 6.91912 21.3724 6.58301 20.9574 6.58301Z"
      fill="black"
    />
    <path
      d="M20.9574 10.2144H19.6747C19.2602 10.2144 18.9236 10.5505 18.9236 10.9655V12.2483C18.9236 12.6628 19.2597 12.9994 19.6747 12.9994H20.9574C21.3719 12.9994 21.7085 12.6633 21.7085 12.2483V10.9655C21.7085 10.5505 21.3724 10.2144 20.9574 10.2144Z"
      fill="black"
    />
    <path
      d="M17.1537 13.8452H15.871C15.4565 13.8452 15.1199 14.1813 15.1199 14.5963V15.8791C15.1199 16.2936 15.456 16.6302 15.871 16.6302H17.1537C17.5682 16.6302 17.9048 16.2941 17.9048 15.8791V14.5963C17.9048 14.1813 17.5682 13.8452 17.1537 13.8452Z"
      fill="black"
    />
    <path
      d="M17.1537 17.4766H15.871C15.4565 17.4766 15.1199 17.8127 15.1199 18.2277V19.5105C15.1199 19.925 15.456 20.2616 15.871 20.2616H17.1537C17.5682 20.2616 17.9048 19.9255 17.9048 19.5105V18.2277C17.9048 17.8127 17.5682 17.4766 17.1537 17.4766Z"
      fill="black"
    />
    <path
      d="M20.9574 13.8452H19.6747C19.2602 13.8452 18.9236 14.1813 18.9236 14.5963V15.8791C18.9236 16.2936 19.2597 16.6302 19.6747 16.6302H20.9574C21.3719 16.6302 21.7085 16.2941 21.7085 15.8791V14.5963C21.7085 14.1813 21.3724 13.8452 20.9574 13.8452Z"
      fill="black"
    />
    <path
      d="M20.9574 17.4766H19.6747C19.2602 17.4766 18.9236 17.8127 18.9236 18.2277V19.5105C18.9236 19.925 19.2597 20.2616 19.6747 20.2616H20.9574C21.3719 20.2616 21.7085 19.9255 21.7085 19.5105V18.2277C21.7085 17.8127 21.3724 17.4766 20.9574 17.4766Z"
      fill="black"
    />
    <path
      d="M6.77939 10.2144H5.49669C5.08222 10.2144 4.74561 10.5505 4.74561 10.9655V12.2483C4.74561 12.6628 5.08171 12.9994 5.49669 12.9994H6.77946C7.19392 12.9994 7.53054 12.6633 7.53054 12.2483V10.9655C7.53054 10.5505 7.19386 10.2144 6.77939 10.2144Z"
      fill="black"
    />
    <path
      d="M10.5832 10.2144H9.3004C8.88593 10.2144 8.54932 10.5505 8.54932 10.9655V12.2483C8.54932 12.6628 8.88542 12.9994 9.3004 12.9994H10.5832C10.9976 12.9994 11.3342 12.6633 11.3342 12.2483V10.9655C11.3342 10.5505 10.9981 10.2144 10.5832 10.2144Z"
      fill="black"
    />
    <path
      d="M6.77939 13.8452H5.49669C5.08222 13.8452 4.74561 14.1813 4.74561 14.5963V15.8791C4.74561 16.2936 5.08171 16.6302 5.49669 16.6302H6.77946C7.19392 16.6302 7.53054 16.2941 7.53054 15.8791V14.5963C7.53054 14.1813 7.19386 13.8452 6.77939 13.8452Z"
      fill="black"
    />
    <path
      d="M6.77939 17.4766H5.49669C5.08222 17.4766 4.74561 17.8127 4.74561 18.2277V19.5105C4.74561 19.925 5.08171 20.2616 5.49669 20.2616H6.77946C7.19392 20.2616 7.53054 19.9255 7.53054 19.5105V18.2277C7.53054 17.8127 7.19386 17.4766 6.77939 17.4766Z"
      fill="black"
    />
    <path
      d="M10.5832 13.8452H9.3004C8.88593 13.8452 8.54932 14.1813 8.54932 14.5963V15.8791C8.54932 16.2936 8.88542 16.6302 9.3004 16.6302H10.5832C10.9976 16.6302 11.3342 16.2941 11.3342 15.8791V14.5963C11.3342 14.1813 10.9981 13.8452 10.5832 13.8452Z"
      fill="black"
    />
    <path
      d="M10.5832 17.4766H9.3004C8.88593 17.4766 8.54932 17.8127 8.54932 18.2277V19.5105C8.54932 19.925 8.88542 20.2616 9.3004 20.2616H10.5832C10.9976 20.2616 11.3342 19.9255 11.3342 19.5105V18.2277C11.3342 17.8127 10.9981 17.4766 10.5832 17.4766Z"
      fill="black"
    />
  </svg>